# xmcd
#
# Track frame offsets: 
#        150
#        21225
#        47925
#        67275
#        87450
#        123600
#        147150
#        170100
#        189450
#        210225
#        227325
#        245400
#        275625
#        308962
#
# Disc length: 4547 seconds
#
# Revision: 0
# Processed by: cddbd v1.5.2PL0 Copyright (c) Steve Scherf et al.
# Submitted via: ExactAudioCopyFreeDBPlugin 1.0
#
DISCID=d311c10e
DTITLE=Chump Change - New Money's Coming Live Vol. 2
DYEAR=2000
DGENRE=Blues
TTITLE0=New Money's Coming (€uro Blues)
TTITLE1=Find 'em, Fool 'em, and Forget 'em
TTITLE2=Ain't That Lovin' You
TTITLE3=I done Got Over You
TTITLE4=Same Thing
TTITLE5=The Blues Had A Baby
TTITLE6=I Give You All That I Can Give
TTITLE7=Just A Little Bit
TTITLE8=Someone Else Is Steppin' In
TTITLE9=Te-Ni-Nee-Ni-Nu
TTITLE10=I Can't Quit You Baby
TTITLE11=Early Boogie
TTITLE12=Ain't Nobody's Business
TTITLE13=I Don't Know
EXTD=
EXTT0=
EXTT1=
EXTT2=
EXTT3=
EXTT4=
EXTT5=
EXTT6=
EXTT7=
EXTT8=
EXTT9=
EXTT10=
EXTT11=
EXTT12=
EXTT13=
PLAYORDER=
